<svg width="24" height="24" viewBox="0 0 24 24" fill="none" xmlns="http://www.w3.org/2000/svg">
<g clip-path="url(#clip0_88_15126)">
<path fill-rule="evenodd" clip-rule="evenodd" d="M10.9986 2C9.894 2 8.99857 2.89543 8.99857 4V4.5818C8.30344 4.86315 7.65728 5.23912 7.07596 5.69343L6.57106 5.40192C5.61447 4.84963 4.39129 5.17738 3.83901 6.13397L2.83901 7.86602C2.28672 8.82261 2.61447 10.0458 3.57106 10.5981L4.0752 10.8891C4.02465 11.2526 3.99857 11.6235 3.99857 12C3.99857 12.3765 4.02464 12.7473 4.07517 13.1106L3.57065 13.4019C2.61406 13.9542 2.28631 15.1774 2.8386 16.134L3.8386 17.866C4.39088 18.8226 5.61406 19.1504 6.57065 18.5981L7.07579 18.3064C7.65715 18.7608 8.30337 19.1368 8.99857 19.4182V20C8.99857 21.1046 9.894 22 10.9986 22H12.9986C14.1031 22 14.9986 21.1046 14.9986 20V19.4182C15.6939 19.1368 16.3403 18.7606 16.9218 18.3061L17.4275 18.5981C18.384 19.1504 19.6072 18.8226 20.1595 17.866L21.1595 16.134C21.7118 15.1774 21.384 13.9542 20.4275 13.4019L19.922 13.1101C19.9725 12.7469 19.9986 12.3763 19.9986 12C19.9986 11.6237 19.9725 11.2529 19.922 10.8897L20.4271 10.5981C21.3836 10.0458 21.7114 8.82262 21.1591 7.86603L20.1591 6.13398C19.6068 5.17739 18.3836 4.84964 17.4271 5.40193L16.9216 5.69375C16.3402 5.2393 15.6939 4.86322 14.9986 4.5818V4C14.9986 2.89543 14.1031 2 12.9986 2H10.9986ZM10.9986 4H12.9986V6.03561L13.7133 6.24833C14.6245 6.51951 15.4462 7.00205 16.121 7.6404L16.6625 8.15272L18.4271 7.13398L19.4271 8.86603L17.6646 9.88361L17.8365 10.6082C17.9423 11.0539 17.9986 11.5197 17.9986 12C17.9986 12.4802 17.9424 12.946 17.8366 13.3916L17.6646 14.1162L19.4275 15.134L18.4275 16.866L16.6627 15.8471L16.1211 16.3595C15.4463 16.9979 14.6245 17.4805 13.7133 17.7517L12.9986 17.9644V20H10.9986L10.9986 17.9644L10.2838 17.7517C9.37274 17.4805 8.55114 16.998 7.87637 16.3598L7.33479 15.8475L5.57065 16.866L4.57065 15.134L6.33268 14.1167L6.16064 13.392C6.05482 12.9463 5.99857 12.4804 5.99857 12C5.99857 11.5196 6.05483 11.0536 6.16069 10.6078L6.33275 9.88313L4.57106 8.86602L5.57106 7.13397L7.33492 8.15234L7.8765 7.6401C8.55125 7.0019 9.3728 6.51946 10.2838 6.24833L10.9986 6.03561V4ZM13.499 12C13.499 12.8284 12.8275 13.5 11.999 13.5C11.1706 13.5 10.499 12.8284 10.499 12C10.499 11.1716 11.1706 10.5 11.999 10.5C12.8275 10.5 13.499 11.1716 13.499 12ZM15.499 12C15.499 13.933 13.932 15.5 11.999 15.5C10.066 15.5 8.49902 13.933 8.49902 12C8.49902 10.067 10.066 8.5 11.999 8.5C13.932 8.5 15.499 10.067 15.499 12Z" fill="#111111"/>
</g>
<defs>
<clipPath id="clip0_88_15126">
<rect width="24" height="24" fill="white"/>
</clipPath>
</defs>
</svg>
