<svg width="24" height="24" viewBox="0 0 24 24" fill="none" xmlns="http://www.w3.org/2000/svg">
<g clip-path="url(#clip0_88_15123)">
<path fill-rule="evenodd" clip-rule="evenodd" d="M11.4188 3.18627C11.7665 2.93791 12.2335 2.93791 12.5812 3.18627L19.5812 8.18627C19.844 8.37398 20 8.67705 20 9V20C20 20.5523 19.5523 21 19 21H14C13.4477 21 13 20.5523 13 20V15H11V20C11 20.5523 10.5523 21 10 21H5C4.44772 21 4 20.5523 4 20V9C4 8.67705 4.15597 8.37398 4.41876 8.18627L11.4188 3.18627ZM6 9.51462V19H9V14C9 13.4477 9.44772 13 10 13H14C14.5523 13 15 13.4477 15 14V19H18V9.51462L12 5.2289L6 9.51462Z" fill="#111111"/>
</g>
<defs>
<clipPath id="clip0_88_15123">
<rect width="24" height="24" fill="white"/>
</clipPath>
</defs>
</svg>
