<svg width="16" height="16" viewBox="0 0 16 16" fill="none" xmlns="http://www.w3.org/2000/svg">
<g clip-path="url(#clip0_70_1792)">
<circle cx="8" cy="8" r="6" fill="#898989"/>
<path fill-rule="evenodd" clip-rule="evenodd" d="M9.64645 10.3536C9.84171 10.5488 10.1583 10.5488 10.3536 10.3536C10.5488 10.1583 10.5488 9.84171 10.3536 9.64645L8.70711 8L10.3536 6.35355C10.5488 6.15829 10.5488 5.84171 10.3536 5.64645C10.1583 5.45118 9.84171 5.45118 9.64645 5.64645L8 7.29289L6.35355 5.64645C6.15829 5.45118 5.84171 5.45118 5.64645 5.64645C5.45118 5.84171 5.45118 6.15829 5.64645 6.35355L7.29289 8L5.64645 9.64645C5.45118 9.84171 5.45118 10.1583 5.64645 10.3536C5.84171 10.5488 6.15829 10.5488 6.35355 10.3536L8 8.70711L9.64645 10.3536Z" fill="white"/>
</g>
<defs>
<clipPath id="clip0_70_1792">
<rect width="16" height="16" fill="white"/>
</clipPath>
</defs>
</svg>
