<svg width="24" height="24" viewBox="0 0 24 24" fill="none" xmlns="http://www.w3.org/2000/svg">
<g clip-path="url(#clip0_88_15120)">
<path fill-rule="evenodd" clip-rule="evenodd" d="M18 14.7251L17 14.3918V16.5L18 16.8333L20 17.5V15.3918V9.5V8.5V5C20 3.89543 19.1046 3 18 3H10C8.89543 3 8 3.89543 8 5V5.5H10V5L18 5V8.5V9.5V14.7251ZM14 18.2251L10 16.8918L6 18.2251V8.5H14V18.2251ZM4 8.5V21L10 19L16 21V8.5C16 7.39543 15.1046 6.5 14 6.5H6C4.89543 6.5 4 7.39543 4 8.5Z" fill="#111111"/>
</g>
<defs>
<clipPath id="clip0_88_15120">
<rect width="24" height="24" fill="white"/>
</clipPath>
</defs>
</svg>
