<svg width="24" height="24" viewBox="0 0 24 24" fill="none" xmlns="http://www.w3.org/2000/svg">
<g clip-path="url(#clip0_2017_6802)">
<path d="M18 7.79004H16C15.45 7.79004 15 8.24004 15 8.79004C15 9.34004 15.45 9.79004 16 9.79004H18V20.79H6V9.79004H8C8.55 9.79004 9 9.34004 9 8.79004C9 8.24004 8.55 7.79004 8 7.79004H6C4.9 7.79004 4 8.69004 4 9.79004V20.79C4 21.89 4.9 22.79 6 22.79H18C19.1 22.79 20 21.89 20 20.79V9.79004C20 8.69004 19.1 7.79004 18 7.79004Z" fill="#111111"/>
<path d="M11.9997 15.79C12.5497 15.79 12.9997 15.34 12.9997 14.79V4.79H14.7897C15.2397 4.79 15.4597 4.25 15.1397 3.94L12.3497 1.15C12.1497 0.95 11.8397 0.95 11.6397 1.15L8.8497 3.94C8.5397 4.25 8.7597 4.79 9.2097 4.79H10.9997V14.79C10.9997 15.34 11.4497 15.79 11.9997 15.79Z" fill="#111111"/>
</g>
<defs>
<clipPath id="clip0_2017_6802">
<rect width="24" height="24" fill="white"/>
</clipPath>
</defs>
</svg>
